<?xml version="1.0" standalone="no"?>
<!DOCTYPE svg PUBLIC "-//W3C//DTD SVG 20010904//EN"
 "http://www.w3.org/TR/2001/REC-SVG-20010904/DTD/svg10.dtd">
<svg version="1.0" xmlns="http://www.w3.org/2000/svg"
 width="700.000000pt" height="700.000000pt" viewBox="0 0 700.000000 700.000000"
 preserveAspectRatio="xMidYMid meet">
<metadata>
Created by potrace 1.11, written by Peter Selinger 2001-2013
</metadata>
<g transform="translate(0.000000,700.000000) scale(0.100000,-0.100000)"
fill="#000000" stroke="none">
<path d="M3369 6065 c-2 -1 -29 -6 -59 -9 -85 -10 -108 -15 -204 -42 -463
-135 -864 -523 -1046 -1014 -45 -121 -82 -236 -95 -300 -2 -8 -10 -42 -19 -75
-8 -33 -17 -76 -20 -95 -3 -19 -10 -62 -16 -95 -25 -150 -35 -503 -18 -650 38
-331 124 -654 250 -934 35 -79 149 -306 159 -316 14 -14 11 -37 -10 -80 -12
-25 -19 -64 -20 -115 -8 -322 319 -516 596 -355 45 27 114 100 139 149 31 61
43 119 41 200 -2 68 -8 92 -34 146 -70 145 -212 232 -368 227 -43 -2 -53 1
-62 18 -150 284 -206 415 -263 620 -24 87 -32 122 -46 195 -2 8 -6 31 -10 50
-8 41 -10 58 -19 143 -3 34 -9 76 -11 92 -7 41 -7 365 0 445 8 93 17 163 21
180 2 8 7 31 10 50 45 278 175 573 358 810 94 121 201 208 346 280 194 97 385
142 574 136 141 -4 168 -9 257 -42 199 -75 361 -215 507 -436 141 -213 270
-579 276 -784 0 -6 73 -32 161 -58 89 -27 167 -50 175 -53 21 -8 9 108 -36
357 -9 55 -57 219 -88 304 -148 408 -413 733 -740 906 -107 57 -258 110 -355
126 -14 2 -36 7 -50 10 -27 7 -276 15 -281 9z"/>
<path d="M3100 4460 c-131 -22 -240 -101 -294 -215 -129 -272 78 -579 378
-559 116 7 234 77 294 175 l37 60 190 -5 c105 -3 197 -7 205 -10 8 -3 40 -7
70 -10 131 -11 373 -69 540 -127 236 -83 484 -213 691 -362 328 -235 573 -561
689 -917 97 -297 66 -583 -88 -825 -167 -261 -375 -409 -666 -471 -86 -19
-336 -27 -426 -13 -99 14 -121 18 -170 28 -60 12 -210 57 -271 82 -64 25 -70
24 -105 -7 -65 -58 -83 -72 -169 -138 -49 -38 -94 -72 -98 -76 -9 -8 156 -79
281 -119 100 -33 284 -75 387 -90 101 -13 375 -11 480 5 341 51 646 198 870
419 97 95 140 147 194 232 67 107 129 287 150 438 11 81 11 317 0 384 -4 25
-11 64 -14 86 -30 191 -145 469 -271 655 -169 252 -468 544 -723 705 -9 6 -34
22 -57 37 -122 78 -353 192 -484 238 -19 7 -44 16 -55 20 -58 23 -214 70 -283
85 -159 35 -205 44 -247 50 -27 3 -63 8 -80 10 -124 19 -237 27 -409 29 l-139
2 -43 56 c-87 113 -228 170 -364 148z"/>
<path d="M1515 3577 c-44 -34 -87 -68 -96 -77 -8 -8 -42 -40 -75 -71 -88 -84
-182 -191 -246 -283 -32 -44 -61 -85 -66 -91 -33 -41 -136 -256 -167 -350 -59
-178 -80 -310 -80 -505 0 -191 26 -345 85 -505 143 -387 433 -636 885 -759
228 -61 524 -78 740 -40 333 57 711 184 955 318 143 79 212 123 320 204 332
252 607 579 789 941 28 54 35 61 73 71 124 31 219 108 271 218 28 58 32 79 33
155 4 188 -98 328 -281 387 -88 29 -230 8 -315 -45 -43 -27 -113 -102 -135
-145 -71 -137 -52 -324 43 -431 l24 -27 -48 -83 c-116 -202 -220 -339 -390
-513 -133 -136 -374 -312 -614 -449 -222 -127 -458 -218 -650 -252 -14 -2 -56
-10 -95 -16 -79 -14 -365 -18 -469 -6 -254 28 -479 130 -628 283 -73 75 -88
96 -141 185 -159 272 -193 555 -101 844 51 159 140 321 254 460 59 72 232 243
275 271 21 13 22 19 13 47 -5 18 -26 98 -46 179 l-37 148 -80 -63z"/>
</g>
</svg>
